<?xml version="1.0" encoding="UTF-8"?>
<!-- Created with Grafika (https://www.grafika.cc/) -->
<svg xmlns="http://www.w3.org/2000/svg" xmlns:svg="http://www.w3.org/2000/svg" xmlns:xlink="http://www.w3.org/1999/xlink" width="40" height="40" viewBox="0 0 512 512" preserveAspectRatio="xMidYMid meet">
	<g transform="matrix(1, 0, 0, 1, 256, 256)">
		<path transform="matrix(0.8207377195358276, 0, 0, 0.8207377195358276, -3.3613739013671875, 175.59706115722656)" d="M-307.09,-499.14 C-307.18,-497.95 -307.18,-206.95 -307.2,-205.25 C-304.94,-206.74 -41.33,-419.19 -39.73,-420.44 C-42.96,-423.16 -105.02,-473.63 -137.52,-499.86 C-193.84,-499.86 -305.23,-499.17 -307.09,-499.14M-306.99,-135.81 C-307.54,-134.99 -307.81,2.98 -307.81,71.86 L-280.06,71.86 C-232.61,33.75 -185.2,-4.37 -137.83,-42.48 C-137.83,-118.37 -137.55,-270.14 -137.01,-270.14 C-136.41,-270.14 -67.48,-214.83 4.61,-156.73 C108.24,-240.17 315.8,-407.52 315.91,-408.08 C316.11,-408.7 315.94,-469.65 315.8,-499.86 L146.33,-499.86 C126.53,-484 -306.44,-136.64 -306.99,-135.81 L-306.99,-135.81 ZM145.82,-202.15 C145.82,-151.13 146.03,-48.18 146.43,-45.57 C146.8,-43.6 270,56.65 288.97,71.96 C297.92,71.76 306.89,71.55 315.91,71.35 C315.84,-65.25 315.63,-338.58 315.5,-338.65" style="fill:#FFFFFF;" />
	</g>
</svg>